<svg color-interpolation-filters="sRGB" data-v-0dd9719b="" height="100%" preserveAspectRatio="xMidYMid meet" style="margin: auto;" version="1.0" viewBox="0 0 340.000000 250.000000" width="100%" xmlns="http://www.w3.org/2000/svg" xmlns:xlink="http://www.w3.org/1999/xlink">
    <!---->
    <g class="iconlettersvg-g iconlettersvg" data-v-0dd9719b="" fill="#feffff" transform="translate(102.82019623519227,93.06400108337402)">
        <g>
            <g class="tp-name" transform="translate(0,0)">
                <g transform="scale(1)">
                    <g transform="translate(0, 0)">
                        <g class="name-imagesvg">
                            <g>
                                <rect class="image-rect" fill="#feffff" fill-opacity="0" height="50" stroke-width="2" width="46.880425330976514" x="0" y="0"/>
                                <svg class="image-svg-svg primary" filtersec="colorsb4299219874" height="50" style="overflow: visible;" width="46.880425330976514" x="0" y="0">
                                    <svg viewBox="0 0 439.56 468.81" xmlns="http://www.w3.org/2000/svg">
                                        <path d="M403.29 64.71C368.68 28 315.56 0 234 0-1.62 0 0 234 0 234s0 234 234 234c70.38 0 119.56-21.18 154-50.78a197.45 197.45 0 0 0 14.95-14.3L234 234zM234.82 427.38h-.21c-.44 0-44.93-4-88.78-29.58-25.83-15.07-46.39-34.56-61.16-57.94-18.44-29.21-27.79-64.55-27.79-105v-.81c.12-40.16 9.46-75.23 27.78-104.24 14.78-23.43 35.34-42.92 61.17-57.98 43.85-25.57 88.34-29.53 88.78-29.57a2.44 2.44 0 0 1 .41 4.86c-.44 0-44 3.93-86.88 29-25.09 14.67-45.08 33.62-59.4 56.33C71 160.66 61.89 194.82 61.76 234v.81c0 39.57 9.1 74 27.05 102.45 14.34 22.71 34.36 41.66 59.49 56.32 42.9 25 86.29 28.89 86.73 28.93a2.44 2.44 0 0 1-.2 4.87z" fill="#2f97dd" opacity=".7"/>
                                        <path d="M439.56 468.81L0 468V234h56.89v.81c0 40.5 9.35 75.84 27.79 105.05 14.77 23.38 35.35 42.87 61.16 57.93 43.85 25.58 88.34 29.54 88.78 29.58h.21a2.44 2.44 0 0 0 .2-4.87c-.44 0-43.83-3.9-86.73-28.93-25.14-14.65-45.16-33.57-59.5-56.31-18-28.42-27-62.88-27-102.45V234h143L388 417.22z" fill="#94d30e" opacity=".7"/>
                                    </svg>
                                </svg>
                                <!---->
                            </g>
                        </g>
                    </g>
                    <g transform="translate(46.880425330976514, 0)">
                        <g class="name-imagesvg">
                            <g>
                                <rect class="image-rect" fill="#feffff" fill-opacity="0" height="50" stroke-width="2" width="37.47919210831013" x="0" y="0"/>
                                <svg class="image-svg-svg primary" filtersec="colorsb8336516641" height="50" style="overflow: visible;" width="37.47919210831013" x="0" y="0">
                                    <svg viewBox="0 0 351 468.26" xmlns="http://www.w3.org/2000/svg">
                                        <path d="M102.38.26H0v468h117v-117s32.58 2 73.42-5.29l-60-80H43.88a2.44 2.44 0 0 1 0-4.88h87.75a112.93 112.93 0 0 0 50.14-14.4c.71-.41 1.41-.83 2.1-1.25A91.71 91.71 0 0 0 216 212.81c10.35-17.8 15.6-40.1 15.6-66.3s-5.31-48.59-15.7-66.41a92 92 0 0 0-34.3-33.85 112.54 112.54 0 0 0-50-14.3H31.69V439a2.44 2.44 0 0 1-4.88 0V29.51a2.44 2.44 0 0 1 2.44-2.44h102.38A115.7 115.7 0 0 1 184 42c23.91 13.66 52.42 42.88 52.42 104.49 0 27.12-5.5 50.29-16.33 68.87a96.46 96.46 0 0 1-33.3 34c-.91.56-1.85 1.11-2.79 1.65a118 118 0 0 1-47.69 14.71L195.77 345a277.76 277.76 0 0 0 51.42-15.12C301 307.8 351 263.66 351 175.76 351-14.36 102.38.26 102.38.26z" fill="#2f97dd" opacity=".7"/>
                                        <path d="M351 468.26H0V.26L26.81 36v403a2.44 2.44 0 0 0 4.88 0V42.51l152.18 202.91c-.69.42-1.39.84-2.1 1.25a112.93 112.93 0 0 1-50.14 14.4H43.88a2.44 2.44 0 0 0 0 4.88h86.53l60 80 70.88 94.5a2.44 2.44 0 1 0 3.9-2.92L195.77 345l-59.44-79.26A118 118 0 0 0 184 251c.94-.54 1.88-1.09 2.79-1.65l60.38 80.5z" fill="#94d30e" opacity=".7"/>
                                    </svg>
                                </svg>
                                <!---->
                            </g>
                        </g>
                    </g>
                    <g transform="translate(84.35961743928664, 0)">
                        <g class="name-imagesvg">
                            <g>
                                <rect class="image-rect" fill="#feffff" fill-opacity="0" height="50" stroke-width="2" width="50" x="0" y="0"/>
                                <svg class="image-svg-svg primary" filtersec="colorsb3347601876" height="50" style="overflow: visible;" width="50" x="0" y="0">
                                    <svg viewBox="0 0 468 468" xmlns="http://www.w3.org/2000/svg">
                                        <path d="M250 333.36l-14 19.09a2.44 2.44 0 0 1-3.92 0L218 333.36 31.69 80.54v358.21a2.44 2.44 0 0 1-4.88 0V73.12a2.44 2.44 0 0 1 4.4-1.44L221 329.29l13 17.6 13-17.6L234 312 0 0v468h351z" fill="#fd2965" opacity=".7"/>
                                        <path d="M234 312l-13 17.29 13 17.6 13-17.6L436.79 71.68a2.44 2.44 0 0 1 4.4 1.44v380.26a2.44 2.44 0 0 1-4.88 0V80.54L250 333.36l-14 19.09a2.44 2.44 0 0 1-3.92 0L218 333.36 117 468h351V0z" fill="#fa991a" opacity=".7"/>
                                    </svg>
                                </svg>
                                <!---->
                            </g>
                        </g>
                    </g>
                </g>
            </g>
        </g>
    </g>
    <defs v-gra="od"/>
</svg>
